Coordinates
version=1
nRows=38
nColumns=38
inDegrees=no

Units are S.I. units (second, meters, Newtons, ...)
If the header above contains a line with 'inDegrees', this indicates whether rotational values are in degrees (yes) or radians (no).

endheader
time	pelvis_tilt	pelvis_list	pelvis_rotation	pelvis_tx	pelvis_ty	pelvis_tz	hip_flexion_r	hip_adduction_r	hip_rotation_r	knee_angle_r	ankle_angle_r	subtalar_angle_r	mtp_angle_r	hip_flexion_l	hip_adduction_l	hip_rotation_l	knee_angle_l	ankle_angle_l	subtalar_angle_l	mtp_angle_l	lumbar_extension	lumbar_bending	lumbar_rotation	arm_flex_r	arm_add_r	arm_rot_r	elbow_flex_r	pro_sup_r	wrist_flex_r	wrist_dev_r	arm_flex_l	arm_add_l	arm_rot_l	elbow_flex_l	pro_sup_l	wrist_flex_l	wrist_dev_l
50	-0.00163913	0.975408	1.69797	0.709373	0.100317	0.658396	1.71052	-0.70557	-0.270942	1.82829	0.449909	0	0	1.62856	-0.481743	-0.35869	1.78543	0.492066	0	0	-0.517482	-0.000368031	-0.0261331	1.09777	-0.454361	-0.0662802	1.30268	0.889478	0	0	1.30652	-0.446352	0.249463	1.13599	0.954144	0	0
50.01	-0.000713687	0.975437	1.69596	0.709337	0.100626	0.659269	1.70752	-0.706194	-0.27416	1.82665	0.447996	0	0	1.62539	-0.48253	-0.360283	1.78251	0.494736	0	0	-0.518184	-6.86993e-05	-0.025073	1.09772	-0.454461	-0.0647552	1.30063	0.889547	0	0	1.3073	-0.447037	0.251507	1.13324	0.953929	0	0
50.02	0.000222846	0.975786	1.69383	0.709315	0.100892	0.66027	1.70381	-0.706728	-0.278019	1.82446	0.44611	0	0	1.62215	-0.483432	-0.361462	1.77966	0.49661	0	0	-0.519349	3.76475e-05	-0.0240398	1.09831	-0.454664	-0.0626337	1.29689	0.889371	0	0	1.30825	-0.44761	0.253843	1.12999	0.952416	0	0
50.03	0.000792264	0.976512	1.69175	0.709333	0.101157	0.661399	1.69908	-0.706736	-0.282234	1.82155	0.445238	0	0	1.61824	-0.484461	-0.362506	1.77654	0.49852	0	0	-0.520956	-0.000481336	-0.0230458	1.09946	-0.454956	-0.0598185	1.29124	0.889831	0	0	1.30944	-0.44821	0.256716	1.12597	0.949609	0	0
50.04	0.000777556	0.977663	1.69004	0.709387	0.101414	0.662702	1.69324	-0.706152	-0.286557	1.81806	0.445305	0	0	1.61326	-0.485145	-0.363813	1.77274	0.500879	0	0	-0.523142	-0.0017587	-0.0221702	1.10124	-0.455712	-0.056012	1.28345	0.892146	0	0	1.31137	-0.448802	0.260598	1.12101	0.945641	0	0
50.05	0.000768532	0.979048	1.68847	0.709407	0.101637	0.664191	1.6865	-0.705134	-0.291049	1.8137	0.445994	0	0	1.60768	-0.485155	-0.365116	1.76827	0.503415	0	0	-0.525632	-0.00312286	-0.0213334	1.10373	-0.457541	-0.0505866	1.27362	0.896054	0	0	1.31391	-0.449052	0.265173	1.11511	0.940632	0	0
50.06	0.000635229	0.980479	1.68724	0.709395	0.101824	0.665883	1.67953	-0.703807	-0.295348	1.80868	0.446539	0	0	1.60191	-0.484598	-0.36633	1.76344	0.505499	0	0	-0.528194	-0.00456504	-0.0206497	1.1066	-0.460379	-0.0438464	1.26262	0.900079	0	0	1.31705	-0.449064	0.270635	1.10813	0.935195	0	0
50.07	-0.00036492	0.982053	1.68694	0.709399	0.101977	0.667824	1.67283	-0.702285	-0.298859	1.80324	0.446161	0	0	1.5956	-0.483824	-0.368051	1.75829	0.506502	0	0	-0.531097	-0.00665374	-0.0202609	1.1097	-0.464239	-0.0361795	1.25111	0.906029	0	0	1.32131	-0.448929	0.277591	1.09942	0.927804	0	0
50.08	-0.00141019	0.983706	1.68703	0.709369	0.102119	0.669991	1.66608	-0.700876	-0.301944	1.79757	0.4451	0	0	1.58899	-0.482819	-0.37013	1.75263	0.506417	0	0	-0.534061	-0.00875075	-0.0199824	1.11282	-0.468972	-0.0288599	1.23933	0.912072	0	0	1.32593	-0.447958	0.284445	1.0888	0.921523	0	0
50.09	-0.00219104	0.985404	1.68731	0.709264	0.102224	0.672389	1.659	-0.699749	-0.304935	1.79154	0.443509	0	0	1.58196	-0.481541	-0.372695	1.74631	0.505618	0	0	-0.536945	-0.0104981	-0.0200962	1.11663	-0.47476	-0.0194083	1.22516	0.921025	0	0	1.33064	-0.446771	0.291723	1.07666	0.915057	0	0
50.1	-0.00327563	0.987015	1.68819	0.709115	0.102326	0.675066	1.65164	-0.6988	-0.307758	1.7849	0.441744	0	0	1.57395	-0.480127	-0.376507	1.73902	0.50491	0	0	-0.539599	-0.0123053	-0.0209112	1.1212	-0.481785	-0.00524706	1.20727	0.934492	0	0	1.33521	-0.446272	0.299241	1.06427	0.909128	0	0
50.11	-0.00495887	0.988596	1.6898	0.708934	0.102456	0.67805	1.64382	-0.697972	-0.310477	1.77748	0.439972	0	0	1.56451	-0.478679	-0.381859	1.73059	0.504511	0	0	-0.542077	-0.0144345	-0.0225378	1.12678	-0.489432	0.0134636	1.18578	0.943055	0	0	1.33953	-0.446834	0.307239	1.05183	0.906194	0	0
50.12	-0.00693808	0.99005	1.69182	0.708729	0.102612	0.681329	1.63536	-0.697154	-0.313542	1.76902	0.438181	0	0	1.55401	-0.477144	-0.388354	1.72099	0.50407	0	0	-0.544172	-0.0167971	-0.0249269	1.13353	-0.497444	0.0362839	1.16051	0.948359	0	0	1.34347	-0.448484	0.315922	1.03858	0.904253	0	0
50.13	-0.00886382	0.991199	1.69392	0.708479	0.1028	0.684892	1.62638	-0.696291	-0.317252	1.75955	0.436248	0	0	1.54295	-0.475463	-0.395683	1.71027	0.503189	0	0	-0.545555	-0.0190736	-0.0279523	1.14115	-0.505396	0.0622386	1.13197	0.950707	0	0	1.34631	-0.451189	0.324781	1.02428	0.902789	0	0
50.14	-0.0106678	0.991912	1.69592	0.708175	0.103014	0.688746	1.61721	-0.695314	-0.3216	1.74902	0.433363	0	0	1.53164	-0.473795	-0.403623	1.69861	0.501593	0	0	-0.546078	-0.0211651	-0.0314009	1.14922	-0.512768	0.089944	1.10083	0.949822	0	0	1.34729	-0.454442	0.332275	1.00928	0.901446	0	0
50.15	-0.0124074	0.992425	1.69781	0.707822	0.103205	0.692915	1.60769	-0.694149	-0.32629	1.73757	0.429521	0	0	1.51989	-0.472164	-0.412113	1.68601	0.499418	0	0	-0.546135	-0.0229774	-0.0350968	1.15801	-0.520759	0.122635	1.06916	0.913726	0	0	1.34685	-0.458588	0.340098	0.993713	0.885239	0	0
50.16	-0.0143811	0.992468	1.69989	0.707457	0.103405	0.697374	1.59826	-0.692806	-0.330927	1.72536	0.425045	0	0	1.50764	-0.470551	-0.421654	1.6723	0.496851	0	0	-0.545422	-0.0249122	-0.0385365	1.16525	-0.525757	0.145954	1.03757	0.893254	0	0	1.34477	-0.461306	0.343749	0.975654	0.874126	0	0
50.17	-0.0161859	0.99241	1.70177	0.707037	0.103617	0.702123	1.58826	-0.691299	-0.335904	1.71244	0.420352	0	0	1.49475	-0.468995	-0.431755	1.65775	0.494215	0	0	-0.544381	-0.0264043	-0.0414612	1.17134	-0.528935	0.163611	1.00685	0.869903	0	0	1.34094	-0.462586	0.343043	0.955308	0.860013	0	0
50.18	-0.0178885	0.992489	1.70347	0.706565	0.103845	0.707152	1.57746	-0.689638	-0.34126	1.69878	0.415296	0	0	1.48101	-0.467426	-0.442298	1.64238	0.491518	0	0	-0.543406	-0.0274768	-0.043896	1.17607	-0.530301	0.17525	0.97752	0.846634	0	0	1.33559	-0.46247	0.33763	0.932676	0.843235	0	0
50.19	-0.0199463	0.992771	1.70524	0.706069	0.104099	0.712432	1.56596	-0.687741	-0.34675	1.68433	0.40986	0	0	1.46617	-0.46587	-0.453624	1.62612	0.488849	0	0	-0.542563	-0.0286351	-0.0459444	1.17919	-0.530668	0.18209	0.950156	0.826959	0	0	1.32879	-0.46141	0.328741	0.90871	0.82829	0	0
50.2	-0.0222996	0.993492	1.70729	0.70553	0.104413	0.717969	1.55352	-0.686046	-0.352608	1.66924	0.404092	0	0	1.4502	-0.464004	-0.465375	1.60908	0.486116	0	0	-0.542125	-0.0297457	-0.047887	1.18071	-0.530492	0.184997	0.925854	0.808667	0	0	1.32053	-0.459816	0.317041	0.884784	0.816397	0	0
50.21	-0.0250283	0.994874	1.70966	0.704953	0.104795	0.72375	1.53993	-0.68447	-0.358699	1.65348	0.397963	0	0	1.43302	-0.461688	-0.477408	1.59132	0.48324	0	0	-0.542269	-0.0308745	-0.0497292	1.181	-0.530322	0.186191	0.9046	0.7819	0	0	1.31119	-0.458116	0.304168	0.861191	0.8049	0	0
50.22	-0.0285652	0.996776	1.71266	0.704374	0.105268	0.729736	1.52555	-0.682948	-0.364617	1.63733	0.391897	0	0	1.41457	-0.459064	-0.49005	1.57292	0.480247	0	0	-0.542624	-0.0325401	-0.0514918	1.17941	-0.527722	0.179856	0.88354	0.789203	0	0	1.30065	-0.456817	0.291313	0.838274	0.796656	0	0
50.23	-0.0326541	0.999177	1.7159	0.703787	0.105798	0.735874	1.51042	-0.681258	-0.370615	1.62075	0.385831	0	0	1.39519	-0.456327	-0.502981	1.5541	0.477109	0	0	-0.543049	-0.0345633	-0.0529812	1.17614	-0.525585	0.176484	0.865291	0.784237	0	0	1.28899	-0.455545	0.278488	0.81583	0.795827	0	0
50.24	-0.0371504	1.0022	1.71923	0.703201	0.106412	0.742192	1.49415	-0.679436	-0.376984	1.60371	0.379818	0	0	1.37467	-0.453466	-0.516237	1.53479	0.473822	0	0	-0.54369	-0.0368799	-0.0542975	1.17161	-0.523393	0.173713	0.847242	0.77863	0	0	1.27627	-0.455045	0.268208	0.794774	0.791804	0	0
50.25	-0.0415569	1.0056	1.72225	0.702589	0.107114	0.748658	1.47686	-0.677435	-0.38414	1.58603	0.373428	0	0	1.35353	-0.450249	-0.529413	1.51481	0.470374	0	0	-0.544138	-0.0391567	-0.0550832	1.16598	-0.521608	0.170562	0.827702	0.773237	0	0	1.2623	-0.454824	0.26027	0.774831	0.789045	0	0
50.26	-0.0455876	1.0096	1.72497	0.701944	0.107924	0.755261	1.45828	-0.675447	-0.392157	1.56802	0.366705	0	0	1.33181	-0.446561	-0.542091	1.49439	0.467542	0	0	-0.544611	-0.0411282	-0.0553174	1.1593	-0.52016	0.167411	0.805509	0.768337	0	0	1.24738	-0.454771	0.255038	0.755124	0.787728	0	0
50.27	-0.0497615	1.01389	1.72762	0.701274	0.108811	0.761969	1.43905	-0.673254	-0.4005	1.54947	0.35953	0	0	1.30967	-0.442277	-0.554537	1.47335	0.464552	0	0	-0.54485	-0.0432062	-0.0549069	1.15139	-0.519105	0.163652	0.780655	0.763536	0	0	1.23164	-0.454397	0.251637	0.735363	0.787236	0	0
50.28	-0.0533483	1.01824	1.72981	0.700566	0.109737	0.768713	1.41927	-0.670821	-0.40914	1.53071	0.353211	0	0	1.28783	-0.437343	-0.566099	1.45177	0.461842	0	0	-0.544554	-0.0448868	-0.0539068	1.14231	-0.518359	0.159162	0.753772	0.755445	0	0	1.21499	-0.453749	0.249954	0.715802	0.787935	0	0
50.29	-0.0562455	1.02279	1.73155	0.699845	0.110694	0.775497	1.39885	-0.66826	-0.418309	1.51182	0.347135	0	0	1.26635	-0.431757	-0.576512	1.42969	0.458558	0	0	-0.544029	-0.04609	-0.0523938	1.13242	-0.517961	0.154017	0.725057	0.743007	0	0	1.19771	-0.453152	0.250786	0.696909	0.792305	0	0
50.3	-0.058625	1.02768	1.73286	0.699115	0.111725	0.782329	1.37764	-0.665518	-0.428018	1.49277	0.34109	0	0	1.24495	-0.425665	-0.585938	1.40723	0.454871	0	0	-0.543392	-0.0468625	-0.0502901	1.12172	-0.518199	0.148587	0.695717	0.724054	0	0	1.17976	-0.45205	0.252314	0.677913	0.800741	0	0
50.31	-0.0608075	1.03314	1.7339	0.698396	0.112844	0.789226	1.35548	-0.662397	-0.438153	1.47335	0.334898	0	0	1.22337	-0.419248	-0.59439	1.38462	0.451048	0	0	-0.54295	-0.0474449	-0.0476119	1.1099	-0.519177	0.144313	0.666506	0.7091	0	0	1.16133	-0.450583	0.254797	0.658679	0.810448	0	0
50.32	-0.063032	1.04097	1.73172	0.697324	0.11372	0.795998	1.33242	-0.655856	-0.448794	1.45392	0.327777	0	0	1.20654	-0.403546	-0.601629	1.35958	0.436013	0	0	-0.543707	-0.0476801	-0.0423005	1.09837	-0.520762	0.140917	0.638656	0.697611	0	0	1.14198	-0.448743	0.258041	0.638728	0.820958	0	0
50.33	-0.0646127	1.04713	1.7318	0.696624	0.114966	0.802964	1.30893	-0.651286	-0.459651	1.4334	0.321994	0	0	1.18482	-0.396874	-0.608543	1.33628	0.431397	0	0	-0.543031	-0.0480053	-0.038537	1.08298	-0.522327	0.134997	0.614248	0.689356	0	0	1.12233	-0.446566	0.260677	0.619357	0.829484	0	0
50.34	-0.0667502	1.05412	1.73216	0.695903	0.116295	0.810025	1.28434	-0.646289	-0.470491	1.4121	0.316449	0	0	1.16201	-0.389821	-0.615333	1.31243	0.427047	0	0	-0.542778	-0.0485341	-0.0346453	1.06672	-0.523853	0.130557	0.590356	0.681576	0	0	1.10287	-0.444308	0.264535	0.598735	0.840487	0	0
50.35	-0.0690585	1.06145	1.73277	0.695172	0.117714	0.817136	1.25908	-0.640901	-0.481247	1.39025	0.311054	0	0	1.1389	-0.382125	-0.621339	1.28802	0.422455	0	0	-0.54222	-0.0490346	-0.0309018	1.04858	-0.525373	0.12656	0.568304	0.677181	0	0	1.08286	-0.442015	0.268622	0.577044	0.853466	0	0
50.36	-0.0712201	1.06908	1.73331	0.694478	0.1192	0.824294	1.23334	-0.635154	-0.492057	1.36826	0.305604	0	0	1.11577	-0.373848	-0.626121	1.26305	0.417678	0	0	-0.5413	-0.0494445	-0.0272032	1.02869	-0.526577	0.121896	0.548924	0.674741	0	0	1.06227	-0.439513	0.272987	0.554802	0.86644	0	0
50.37	-0.0734511	1.07681	1.73404	0.693778	0.120772	0.83147	1.20755	-0.629147	-0.502435	1.34605	0.300172	0	0	1.0927	-0.364955	-0.629961	1.2376	0.412754	0	0	-0.539686	-0.0498611	-0.0237071	1.00666	-0.527308	0.115085	0.531879	0.673556	0	0	1.04083	-0.436746	0.277475	0.532584	0.877705	0	0
